<svg width="219" height="201" viewBox="0 0 219 201" fill="none" xmlns="http://www.w3.org/2000/svg">
<g opacity="0.4">
<path d="M155.688 1.80912L195.723 0.349854L194.271 40.3995L187.598 40.166L188.619 12.1845L59.5665 141.286L54.8475 136.565L183.907 7.45649L155.929 8.47798L155.688 1.80912Z" fill="url(#paint0_linear_301_4940)" style="mix-blend-mode:screen"/>
<path d="M128.396 89.9417L128.199 84.3965L161.479 83.178L160.276 116.478L154.726 116.281L155.579 93.0207L48.2906 200.35L44.3667 196.424L151.662 89.088L128.396 89.9417Z" fill="url(#paint1_linear_301_4940)" style="mix-blend-mode:screen"/>
<path d="M173.981 104.024L173.886 101.331L190.041 100.74L189.458 116.909L186.766 116.814L187.175 105.519L135.091 157.623L133.188 155.718L185.271 103.615L173.981 104.024Z" fill="url(#paint2_linear_301_4940)" style="mix-blend-mode:screen"/>
<path d="M104.808 102.28L104.714 99.5873L120.869 98.9963L120.285 115.158L117.594 115.063L118.002 103.775L65.9192 155.871L64.0156 153.967L116.106 101.864L104.808 102.28Z" fill="url(#paint3_linear_301_4940)" style="mix-blend-mode:screen"/>
<path d="M75.8166 16.307L75.7217 13.6147L91.877 13.0237L91.2862 29.1851L88.5949 29.0902L89.0106 17.8028L36.9273 69.8987L35.0237 67.9943L87.107 15.8911L75.8166 16.307Z" fill="url(#paint4_linear_301_4940)" style="mix-blend-mode:screen"/>
<path d="M187.97 53.2849L187.919 51.9205L196.117 51.6213L195.818 59.8224L194.454 59.7786L194.665 54.0437L168.233 80.4857L167.271 79.5153L193.695 53.0733L187.97 53.2849Z" fill="url(#paint5_linear_301_4940)" style="mix-blend-mode:screen"/>
<path d="M93.5691 77.5452L93.5253 76.1807L101.723 75.8816L101.424 84.0827L100.06 84.0389L100.265 78.304L73.84 104.746L72.8699 103.776L99.3018 77.3409L93.5691 77.5452Z" fill="url(#paint6_linear_301_4940)" style="mix-blend-mode:screen"/>
<path d="M210.251 98.5149L210.208 97.1505L218.406 96.8513L218.107 105.052L216.743 105.009L216.947 99.2737L190.522 125.716L189.552 124.745L215.984 98.3106L210.251 98.5149Z" fill="url(#paint7_linear_301_4940)" style="mix-blend-mode:screen"/>
<path d="M130.949 3.1079L130.905 1.74349L139.103 1.44434L138.804 9.64542L137.44 9.59435L137.644 3.86672L111.219 30.3014L110.249 29.3382L136.681 2.89631L130.949 3.1079Z" fill="url(#paint8_linear_301_4940)" style="mix-blend-mode:screen"/>
<path d="M110.359 68.7532L111.205 45.4924L3.92394 152.822L0 148.896L107.296 41.5597L84.0291 42.4134L83.8322 36.8609L117.113 35.6497L115.909 68.9502L110.359 68.7532Z" fill="url(#paint9_linear_301_4940)" style="mix-blend-mode:screen"/>
</g>
<defs>
<linearGradient id="paint0_linear_301_4940" x1="180.481" y1="-8.45197" x2="85.3747" y2="156.196" gradientUnits="userSpaceOnUse">
<stop offset="0.11" stop-color="#CAFF33"/>
<stop offset="1" stop-color="#191919" stop-opacity="0"/>
</linearGradient>
<linearGradient id="paint1_linear_301_4940" x1="148.809" y1="75.8603" x2="69.7361" y2="212.741" gradientUnits="userSpaceOnUse">
<stop offset="0.11" stop-color="#CAFF33"/>
<stop offset="1" stop-color="#191919" stop-opacity="0"/>
</linearGradient>
<linearGradient id="paint2_linear_301_4940" x1="183.89" y1="97.1878" x2="145.503" y2="163.638" gradientUnits="userSpaceOnUse">
<stop offset="0.11" stop-color="#CAFF33"/>
<stop offset="1" stop-color="#191919" stop-opacity="0"/>
</linearGradient>
<linearGradient id="paint3_linear_301_4940" x1="114.718" y1="95.4443" x2="76.3385" y2="161.89" gradientUnits="userSpaceOnUse">
<stop offset="0.11" stop-color="#CAFF33"/>
<stop offset="1" stop-color="#191919" stop-opacity="0"/>
</linearGradient>
<linearGradient id="paint4_linear_301_4940" x1="85.726" y1="9.47169" x2="47.3466" y2="75.9174" gradientUnits="userSpaceOnUse">
<stop offset="0.11" stop-color="#CAFF33"/>
<stop offset="1" stop-color="#191919" stop-opacity="0"/>
</linearGradient>
<linearGradient id="paint5_linear_301_4940" x1="192.996" y1="49.8187" x2="173.516" y2="83.5359" gradientUnits="userSpaceOnUse">
<stop offset="0.11" stop-color="#CAFF33"/>
<stop offset="1" stop-color="#191919" stop-opacity="0"/>
</linearGradient>
<linearGradient id="paint6_linear_301_4940" x1="98.6016" y1="74.0789" x2="79.1239" y2="107.8" gradientUnits="userSpaceOnUse">
<stop offset="0.11" stop-color="#CAFF33"/>
<stop offset="1" stop-color="#191919" stop-opacity="0"/>
</linearGradient>
<linearGradient id="paint7_linear_301_4940" x1="215.284" y1="95.0487" x2="195.806" y2="128.77" gradientUnits="userSpaceOnUse">
<stop offset="0.11" stop-color="#CAFF33"/>
<stop offset="1" stop-color="#191919" stop-opacity="0"/>
</linearGradient>
<linearGradient id="paint8_linear_301_4940" x1="135.981" y1="-0.357861" x2="116.511" y2="33.3594" gradientUnits="userSpaceOnUse">
<stop offset="0.11" stop-color="#CAFF33"/>
<stop offset="1" stop-color="#191919" stop-opacity="0"/>
</linearGradient>
<linearGradient id="paint9_linear_301_4940" x1="104.442" y1="28.332" x2="25.3694" y2="165.213" gradientUnits="userSpaceOnUse">
<stop offset="0.11" stop-color="#CAFF33"/>
<stop offset="1" stop-color="#191919" stop-opacity="0"/>
</linearGradient>
</defs>
</svg>
