<svg width="44" height="44" viewBox="0 0 44 44" fill="none" xmlns="http://www.w3.org/2000/svg">
<path d="M4.84353 20.9213L4.84352 20.9213L4.84257 20.9241C3.97218 23.4976 3.5332 25.9875 3.5332 28.3916V35.5375C3.5332 36.3659 4.20478 37.0375 5.0332 37.0375H14.2304C15.0588 37.0375 15.7304 36.3659 15.7304 35.5375L15.7304 28.3118L15.7304 28.3076C15.7049 25.2765 16.1881 22.52 17.1723 20.0315C18.0773 17.7776 19.1723 15.6055 20.4574 13.515C20.8809 12.8262 20.6986 11.913 20.014 11.4568L14.9224 8.06394C14.3736 7.69826 13.6361 7.72768 13.1282 8.17744C11.4238 9.68649 9.87396 11.4883 8.47731 13.5791L8.47662 13.5802C6.94993 15.8781 5.73869 18.3254 4.84353 20.9213ZM24.5552 20.9213L24.5543 20.9241C23.6839 23.4976 23.2449 25.9875 23.2449 28.3916V35.5375C23.2449 36.3659 23.9165 37.0375 24.7449 37.0375H33.9421C34.7705 37.0375 35.4421 36.3659 35.4421 35.5375L35.4421 28.3118L35.442 28.3076C35.4166 25.2767 35.8998 22.5203 36.8838 20.0319C37.7889 17.7778 38.8839 15.6056 40.1691 13.515C40.5925 12.8262 40.4102 11.913 39.7257 11.4568L34.634 8.06394C34.0853 7.69826 33.3478 7.72768 32.8398 8.17744C31.1354 9.68649 29.5856 11.4883 28.189 13.5791L28.1883 13.5802C26.6616 15.8781 25.4504 18.3254 24.5552 20.9213Z" fill="url(#paint0_linear_113_4985)" stroke="#CAFF33"/>
<defs>
<linearGradient id="paint0_linear_113_4985" x1="22.1508" y1="8.06689" x2="22.1508" y2="36.5375" gradientUnits="userSpaceOnUse">
<stop stop-color="#CAFF33"/>
<stop offset="1" stop-color="#191919"/>
</linearGradient>
</defs>
</svg>
