<svg width="8" height="10" viewBox="0 0 8 10" fill="none" xmlns="http://www.w3.org/2000/svg">
<path fill-rule="evenodd" clip-rule="evenodd" d="M7.46312 3.9557C7.60178 3.03244 6.89494 2.53612 5.92843 2.20502L6.24195 0.954354L5.47624 0.764628L5.171 1.98234C4.96998 1.93247 4.76329 1.88542 4.55791 1.8388L4.86533 0.613065L4.10027 0.42334L3.78653 1.67357C3.61996 1.63585 3.45644 1.59855 3.29771 1.55931L3.29858 1.5554L2.2429 1.29326L2.03926 2.10636C2.03926 2.10636 2.60722 2.23581 2.59523 2.24383C2.90526 2.32081 2.96151 2.52484 2.95192 2.6866L2.59479 4.11138C2.61616 4.1168 2.64385 4.12461 2.67437 4.13675L2.5937 4.1168L2.0929 6.11271C2.05496 6.20638 1.95881 6.34689 1.74209 6.29355C1.74972 6.3046 1.18569 6.15543 1.18569 6.15543L0.805664 7.02708L1.80205 7.27405C1.91452 7.30207 2.02563 7.3309 2.13551 7.35942L2.1356 7.35944C2.20675 7.3779 2.27739 7.39622 2.34755 7.41412L2.03076 8.67931L2.79538 8.86904L3.10934 7.6175C3.31799 7.67388 3.52075 7.72592 3.71916 7.77492L3.40651 9.0206L4.172 9.21033L4.48879 7.94773C5.79412 8.1934 6.7759 8.09431 7.18862 6.9204C7.52155 5.97502 7.17227 5.4297 6.48549 5.07388C6.98564 4.95875 7.36239 4.63155 7.4629 3.9557H7.46312ZM5.71266 6.39461C5.49535 7.26228 4.12942 6.90327 3.505 6.73915L3.50492 6.73913C3.44904 6.72444 3.39909 6.71132 3.35645 6.70077L3.7768 5.0249C3.82895 5.03785 3.89267 5.05207 3.96484 5.06817C4.61083 5.21234 5.93469 5.50778 5.71288 6.39461H5.71266ZM4.09455 4.29051C4.61556 4.42874 5.75125 4.73006 5.94909 3.94184C6.15135 3.13547 5.04702 2.89243 4.50768 2.77373C4.44705 2.76039 4.39355 2.74862 4.34986 2.73779L3.96875 4.25776C4.00481 4.2667 4.04714 4.27793 4.09455 4.29051Z" fill="#CAFF33"/>
</svg>
