<svg width="7" height="11" viewBox="0 0 7 11" fill="none" xmlns="http://www.w3.org/2000/svg">
<path fill-rule="evenodd" clip-rule="evenodd" d="M3.12284 0.423096C3.68766 0.423096 4.25041 0.423096 4.81524 0.423096C4.78202 0.803085 4.74671 1.18514 4.71557 1.56513C5.37384 1.61263 6.0155 1.82327 6.59278 2.13511C6.3436 2.75879 6.09233 3.38247 5.84107 4.00615C5.35515 3.59518 4.71557 3.36801 4.07806 3.37627C3.91816 3.3804 3.75204 3.41138 3.61914 3.50225C3.53192 3.56214 3.46755 3.65507 3.44886 3.75833C3.43432 3.84093 3.43847 3.93386 3.48416 4.00821C3.53607 4.09082 3.62744 4.14038 3.71881 4.17136C3.9057 4.23744 4.10713 4.24157 4.30233 4.26222C4.76125 4.31798 5.22225 4.39646 5.65625 4.55961C5.99266 4.68765 6.31452 4.87971 6.54502 5.16057C6.76306 5.41871 6.88973 5.74501 6.9375 6.07956C6.99356 6.46575 6.97695 6.86639 6.85651 7.24225C6.76306 7.54376 6.60317 7.82462 6.39551 8.06212C5.96566 8.55775 5.33438 8.85514 4.68649 8.93155C4.70726 9.33838 4.73218 9.74315 4.75502 10.15C4.21927 10.15 3.68559 10.15 3.15191 10.15C3.17267 9.74728 3.19967 9.34458 3.21836 8.94187C2.78851 8.92742 2.36281 8.83242 1.96203 8.68166C1.57372 8.53504 1.20409 8.34091 0.859375 8.11374C1.11272 7.46528 1.36606 6.81683 1.62148 6.1663C1.91012 6.40792 2.21745 6.63303 2.55386 6.80443C2.91518 6.98823 3.31596 7.10595 3.72297 7.11008C3.91609 7.11214 4.11544 7.10182 4.29818 7.03573C4.41031 6.99443 4.52037 6.92215 4.57021 6.80857C4.62212 6.68879 4.61797 6.53803 4.53906 6.43064C4.48299 6.35836 4.40408 6.3088 4.32102 6.27369C4.20888 6.22826 4.09259 6.20347 3.97423 6.18489C3.53815 6.11467 3.09999 6.05685 2.67845 5.92055C2.33997 5.81109 2.00979 5.65827 1.73984 5.42284C1.56956 5.27622 1.42836 5.09655 1.32868 4.89416C1.17917 4.59265 1.1231 4.2519 1.12725 3.91734C1.12725 3.54355 1.20409 3.16356 1.39098 2.8352C1.55295 2.54195 1.80006 2.30239 2.07832 2.11859C2.41473 1.89762 2.79059 1.74686 3.17267 1.62502C3.15606 1.22438 3.13945 0.823736 3.12284 0.423096Z" fill="#CAFF33"/>
</svg>
