<svg width="8" height="10" viewBox="0 0 8 10" fill="none" xmlns="http://www.w3.org/2000/svg">
<path d="M7.56752 9.39498L7.33146 8.32892C7.31807 8.26624 7.28434 8.21929 7.23029 8.18813C7.17184 8.15677 7.11344 8.15243 7.05506 8.17479L7.02129 8.18813L6.94029 8.20821C6.90428 8.21704 6.86272 8.22718 6.81553 8.23834C6.76832 8.24952 6.71337 8.2606 6.65034 8.27185C6.58764 8.28303 6.52102 8.29315 6.45152 8.30208C6.38188 8.31084 6.30671 8.3188 6.22574 8.32554C6.14474 8.33214 6.06392 8.33552 5.98295 8.33552C5.41207 8.33552 4.89848 8.18247 4.4423 7.87626C3.98605 7.56996 3.65005 7.15535 3.43432 6.63244H6.0435C6.09304 6.63244 6.13798 6.61572 6.17829 6.58211C6.21889 6.54867 6.24361 6.50735 6.25242 6.45801L6.41423 5.70701C6.42779 5.64015 6.41423 5.57972 6.3739 5.52603C6.32896 5.47234 6.27264 5.44547 6.20531 5.44547H3.11075C3.09726 5.14152 3.09726 4.90686 3.11075 4.74142H6.40096C6.52244 4.74142 6.59428 4.68337 6.61674 4.56714L6.77855 3.80273C6.79194 3.74016 6.77645 3.6821 6.73134 3.62841C6.69103 3.57477 6.63485 3.54784 6.56292 3.54784H3.40743C3.63217 3.04719 3.96926 2.65383 4.4188 2.36773C4.8683 2.08156 5.37622 1.93855 5.94256 1.93855C5.96061 1.92963 6.02685 1.93188 6.14138 1.94527C6.25599 1.95861 6.32128 1.96425 6.33694 1.96199C6.35246 1.95978 6.41114 1.96652 6.51217 1.98207C6.61334 1.99771 6.66394 2.00556 6.66394 2.00556L6.78193 2.029C6.81572 2.03576 6.84156 2.04126 6.8595 2.04579L6.8865 2.05246C6.94487 2.07042 6.99867 2.06479 7.04831 2.03576C7.09778 2.00661 7.12929 1.9631 7.14279 1.90499L7.43274 0.838862C7.44616 0.780735 7.43936 0.727094 7.41255 0.677938C7.37205 0.624203 7.32704 0.590689 7.27759 0.577326C6.86411 0.474529 6.42793 0.423096 5.96956 0.423096C4.96257 0.423096 4.06259 0.709268 3.26921 1.28138C2.47585 1.85354 1.92856 2.60907 1.62739 3.54777H0.966703C0.903745 3.54777 0.852098 3.56785 0.811621 3.60808C0.771262 3.64826 0.750977 3.69969 0.750977 3.76231V4.52672C0.750977 4.58928 0.771191 4.64072 0.811621 4.68085C0.852121 4.72113 0.903839 4.74116 0.966703 4.74116H1.41847C1.40489 4.9558 1.40274 5.19035 1.41166 5.44529H0.966703C0.908279 5.44529 0.857718 5.46649 0.815022 5.50896C0.772349 5.55139 0.750977 5.6017 0.750977 5.65973V6.41747C0.750977 6.47567 0.772349 6.52581 0.815022 6.56842C0.857742 6.61088 0.908279 6.63192 0.966703 6.63192H1.60725C1.89042 7.61982 2.42536 8.40556 3.21196 8.98887C3.99861 9.57239 4.91782 9.86397 5.96956 9.86397C6.05504 9.86397 6.14152 9.86188 6.22921 9.85723C6.31706 9.85274 6.39893 9.84598 6.47538 9.83715C6.55175 9.82829 6.62708 9.81833 6.70126 9.80709C6.77536 9.79584 6.84283 9.78484 6.90345 9.77348C6.96414 9.76239 7.02146 9.75124 7.07535 9.74013C7.12933 9.72881 7.17765 9.71667 7.22042 9.70316C7.26309 9.68992 7.29889 9.67977 7.32822 9.67319C7.35748 9.66645 7.38107 9.65849 7.39893 9.64973L7.43272 9.64297C7.48219 9.62512 7.5204 9.59266 7.54733 9.54564C7.57432 9.49898 7.58093 9.4486 7.56752 9.39498Z" fill="#CAFF33"/>
</svg>
